<?xml version="1.0" encoding="utf-8"?>
<!-- Generator: Adobe Illustrator 24.0.0, SVG Export Plug-In . SVG Version: 6.00 Build 0)  -->
<svg version="1.1" id="Layer_1" xmlns="http://www.w3.org/2000/svg" xmlns:xlink="http://www.w3.org/1999/xlink" x="0px" y="0px"
	 viewBox="0 0 256 256" enable-background="new 0 0 256 256" xml:space="preserve">
<g>
</g>
<g>
	<path fill="#F0C020" d="M28.492,128.008c-3.961-1.309-8.051-2.453-10.348-12.345c-2.115,9.112-5.504,10.745-10.348,12.345
		c7.9,2.61,9.092,6.933,10.348,12.345C20.309,131.023,23.89,129.529,28.492,128.008z"/>
	<path d="M15.554,140.955c-1.147-4.945-1.905-8.212-8.591-10.421c-2.43-0.803-2.424-4.25,0-5.051
		c4.025-1.33,6.684-2.209,8.591-10.422c0.633-2.73,4.546-2.737,5.181,0c1.95,8.399,4.863,9.193,8.591,10.421
		c2.43,0.803,2.424,4.25,0,5.051c-3.881,1.282-6.686,2.209-8.591,10.421C20.099,143.697,16.191,143.697,15.554,140.955z
		 M14.034,128.069c1.914,1.314,3.222,2.815,4.164,4.403c1.141-2.017,2.462-3.405,3.934-4.439c-1.411-1.01-2.778-2.44-3.977-4.601
		C16.968,125.565,15.582,127.007,14.034,128.069z"/>
	<path fill="#F0C020" d="M248.203,128.008c-3.961-1.309-8.051-2.453-10.348-12.345c-2.115,9.112-5.504,10.745-10.348,12.345
		c7.9,2.61,9.092,6.933,10.348,12.345C240.02,131.023,243.601,129.529,248.203,128.008z"/>
	<path d="M235.264,140.955c-1.147-4.945-1.905-8.212-8.591-10.421c-2.43-0.803-2.424-4.25,0-5.051
		c4.025-1.33,6.684-2.209,8.591-10.422c0.633-2.73,4.546-2.737,5.181,0c1.95,8.399,4.863,9.193,8.591,10.421
		c2.43,0.803,2.424,4.25,0,5.051c-3.881,1.282-6.686,2.209-8.591,10.421C239.809,143.697,235.902,143.697,235.264,140.955z
		 M233.744,128.069c1.914,1.314,3.222,2.815,4.164,4.403c1.141-2.017,2.462-3.405,3.934-4.439c-1.411-1.01-2.778-2.44-3.977-4.601
		C236.679,125.565,235.293,127.007,233.744,128.069z"/>
	<path fill="#13BF6D" d="M154.093,49.637c0,14.411-11.682,26.093-26.093,26.093s-26.093-11.682-26.093-26.093S128,4.022,128,4.022
		S154.093,35.226,154.093,49.637z"/>
	<path fill="#13BF6D" d="M101.907,206.365c0-14.411,11.682-26.093,26.093-26.093s26.093,11.682,26.093,26.093
		S128,251.979,128,251.979S101.907,220.775,101.907,206.365z"/>
	<path fill="#13BF6D" d="M47.088,144.585c12.48-7.205,28.438-2.929,35.644,9.551c7.205,12.48,2.929,28.438-9.551,35.644
		c-12.48,7.205-52.55,0.21-52.55,0.21S34.608,151.791,47.088,144.585z"/>
	<path fill="#13BF6D" d="M208.912,111.416c-12.48,7.205-28.438,2.929-35.644-9.551c-7.205-12.48-2.929-28.438,9.551-35.644
		s52.55-0.21,52.55-0.21S221.392,104.21,208.912,111.416z"/>
	<path fill="#13BF6D" d="M47.088,111.416c12.48,7.205,28.438,2.929,35.644-9.551c7.205-12.48,2.929-28.438-9.551-35.644
		s-52.55-0.21-52.55-0.21S34.608,104.21,47.088,111.416z"/>
	<path fill="#13BF6D" d="M208.912,144.585c-12.48-7.205-28.438-2.929-35.644,9.551c-7.205,12.48-2.929,28.438,9.551,35.644
		c12.48,7.205,52.55,0.21,52.55,0.21S221.392,151.791,208.912,144.585z"/>
	<circle fill="#F0C020" cx="127.375" cy="128.532" r="41.503"/>
	<path fill="#EFEFEF" d="M143.344,124.524l-21.464,31.618c-1.218,1.794-3.999,0.469-3.403-1.598l6.574-22.732h-12.069
		c-1.272,0-2.184-1.222-1.829-2.44l8.162-27.925c0.231-0.803,0.984-1.367,1.826-1.367h12.201c1.275,0,2.181,1.218,1.829,2.429
		l-5.473,19.041h12.069C143.298,121.551,144.197,123.263,143.344,124.524z"/>
	<path fill="#76FFBB" d="M121.609,68.27c-1.314-0.422-2.038-1.831-1.615-3.145c0.422-1.314,1.831-2.038,3.145-1.615
		c10.202,3.279,19.515-4.264,19.515-13.874c0-0.933-0.426-3.874-4.368-11.018c-0.667-1.209-0.228-2.73,0.981-3.397
		c1.208-0.667,2.729-0.228,3.397,0.981c3.357,6.085,4.99,10.479,4.99,13.434C147.655,62.612,135.053,72.591,121.609,68.27z
		 M112.168,62.695c-0.784-0.701-1.559-1.462-2.304-2.264c-0.939-1.011-0.882-2.593,0.13-3.533c1.011-0.939,2.593-0.882,3.533,0.13
		c0.64,0.688,1.304,1.341,1.973,1.939c1.03,0.92,1.118,2.5,0.198,3.53C114.778,63.528,113.196,63.615,112.168,62.695z"/>
	<path fill="#76FFBB" d="M113.335,219.798c-3.357-6.085-4.99-10.479-4.99-13.434c0-10.838,8.817-19.655,19.655-19.655
		c2.134,0,4.284,0.344,6.391,1.021c1.314,0.422,2.038,1.831,1.615,3.145c-0.422,1.314-1.829,2.041-3.145,1.615
		c-1.612-0.518-3.247-0.781-4.861-0.781c-8.08,0-14.654,6.574-14.654,14.655c0,0.933,0.426,3.874,4.368,11.018
		c0.667,1.209,0.228,2.73-0.981,3.397C115.52,221.447,114.002,221.005,113.335,219.798z M142.473,198.973
		c-0.64-0.688-1.304-1.341-1.973-1.939c-1.03-0.92-1.118-2.5-0.198-3.53c0.919-1.029,2.501-1.118,3.53-0.198
		c0.784,0.701,1.559,1.462,2.304,2.264c0.939,1.011,0.882,2.593-0.13,3.533C144.994,200.042,143.412,199.984,142.473,198.973z"/>
	<path fill="#76FFBB" d="M75.427,179.145c-1.32-0.406-2.061-1.805-1.655-3.125c0.276-0.898,0.51-1.8,0.693-2.68
		c0.283-1.352,1.609-2.219,2.958-1.936c1.352,0.282,2.218,1.607,1.936,2.958c-0.215,1.03-0.487,2.082-0.809,3.127
		C78.145,178.812,76.745,179.55,75.427,179.145z M74.58,164.456c-2.205-10.221-13.265-14.874-21.772-9.964
		c-0.808,0.466-3.141,2.305-7.358,9.292c-0.713,1.181-2.25,1.562-3.432,0.848c-1.182-0.713-1.562-2.25-0.848-3.432
		c3.592-5.951,6.581-9.561,9.139-11.038c11.412-6.588,26.228-0.348,29.16,13.24c0.291,1.35-0.567,2.68-1.917,2.971
		C76.192,166.663,74.869,165.798,74.58,164.456z"/>
	<path fill="#76FFBB" d="M176.533,92.6c-0.291-1.35,0.567-2.68,1.917-2.971c1.353-0.288,2.68,0.567,2.971,1.917
		c2.205,10.221,13.265,14.874,21.772,9.964c0.808-0.466,3.141-2.305,7.358-9.292c0.713-1.182,2.249-1.563,3.432-0.848
		c1.182,0.713,1.562,2.25,0.848,3.432c-3.592,5.951-6.581,9.561-9.139,11.038C194.281,112.428,179.465,106.188,176.533,92.6z
		 M178.576,84.596c-1.352-0.282-2.218-1.607-1.936-2.958c0.215-1.03,0.487-2.082,0.809-3.127c0.406-1.32,1.806-2.061,3.125-1.655
		c1.32,0.406,2.061,1.805,1.655,3.125c-0.276,0.898-0.51,1.8-0.693,2.68C181.251,84.017,179.921,84.878,178.576,84.596z"/>
	<path fill="#76FFBB" d="M50.307,105.84c-2.558-1.477-5.547-5.087-9.139-11.038c-0.714-1.182-0.334-2.719,0.848-3.432
		c1.183-0.714,2.719-0.333,3.432,0.848c4.217,6.987,6.551,8.825,7.358,9.292c8.495,4.903,19.564,0.273,21.772-9.964
		c0.291-1.35,1.625-2.205,2.971-1.917c1.35,0.292,2.208,1.622,1.917,2.971C76.535,106.192,61.716,112.426,50.307,105.84z
		 M74.466,82.66c-0.184-0.879-0.417-1.781-0.693-2.68c-0.406-1.32,0.335-2.719,1.655-3.125c1.317-0.406,2.719,0.335,3.125,1.655
		c0.321,1.045,0.593,2.097,0.809,3.127c0.282,1.352-0.584,2.676-1.936,2.958C76.079,84.878,74.749,84.017,74.466,82.66z"/>
	<path fill="#76FFBB" d="M177.448,177.49c-0.321-1.045-0.593-2.097-0.809-3.127c-0.282-1.352,0.584-2.676,1.936-2.958
		c1.353-0.283,2.676,0.584,2.958,1.936c0.184,0.879,0.417,1.781,0.693,2.68c0.406,1.32-0.335,2.719-1.655,3.125
		C179.258,179.549,177.856,178.815,177.448,177.49z M178.449,166.372c-1.35-0.292-2.208-1.622-1.917-2.971
		c2.933-13.591,17.751-19.826,29.16-13.24c2.558,1.477,5.547,5.087,9.139,11.038c0.714,1.182,0.334,2.719-0.848,3.432
		c-1.183,0.714-2.719,0.334-3.432-0.848c-4.217-6.987-6.551-8.825-7.358-9.292c-8.495-4.903-19.564-0.273-21.772,9.964
		C181.131,165.796,179.81,166.664,178.449,166.372z"/>
	<path fill="#F8E5B0" d="M131.164,160.988c-0.262-1.356,0.624-2.667,1.979-2.93c13.734-2.659,24.312-14.695,24.312-29.526
		c0-3.92-0.743-7.739-2.207-11.349c-0.519-1.28,0.098-2.737,1.377-3.256c1.281-0.518,2.738,0.098,3.256,1.377
		c1.707,4.21,2.573,8.66,2.573,13.228c0,17.335-12.383,31.34-28.36,34.436C132.72,163.23,131.423,162.329,131.164,160.988z
		 M150.523,109.298c-0.584-0.703-1.213-1.392-1.868-2.047c-0.977-0.976-0.977-2.559,0-3.535c0.976-0.977,2.56-0.977,3.535,0
		c0.763,0.762,1.495,1.565,2.177,2.385c0.883,1.062,0.738,2.638-0.324,3.521C152.981,110.505,151.406,110.359,150.523,109.298z"/>
	<path d="M112.67,20.34c-0.78,1.15-0.48,2.7,0.67,3.48c1.072,0.733,2.657,0.507,3.47-0.67c0.77-1.15,0.47-2.7-0.67-3.48
		C115.03,18.921,113.41,19.24,112.67,20.34z"/>
	<path d="M143.33,235.66c0.785-1.155,0.471-2.716-0.67-3.47c-1.1-0.75-2.71-0.44-3.46,0.66h-0.01c-0.77,1.15-0.47,2.7,0.67,3.48
		C141,237.09,142.564,236.792,143.33,235.66z"/>
	<path d="M45.12,192.791c0.106-1.389-0.944-2.566-2.31-2.67c-1.37-0.09-2.58,0.95-2.68,2.32c-0.085,1.4,0.957,2.569,2.32,2.67
		C44.077,195.11,45.035,194.013,45.12,192.791z"/>
	<path d="M45.84,113.581c12.522,7.241,28.987,4.068,37.708-8.367l4.903,2.83c-3.236,6.124-5.078,13.093-5.078,20.488
		c0,7.067,1.684,13.744,4.657,19.668l-4.485,2.589c-8.525-12.171-24.884-15.784-37.705-8.368
		c-11.164,6.563-22.994,34.488-27.49,46.54c-0.67,1.696,0.399,3.23,1.85,3.49c0.05,0.01,5.11,0.89,12.18,1.71
		c1.36,0.15,2.61-0.84,2.77-2.2c0.16-1.37-0.83-2.61-2.2-2.77c-1.779-0.205-3.419-0.413-4.871-0.609l36.11-20.846l-6.086,22.706
		c-2.828,0.138-4.483,0.088-5.483,0.088c-1.36,0-2.48,1.12-2.49,2.48c-0.01,1.38,1.1,2.51,2.48,2.52
		c6.299,0.208,16.248-0.452,21.82-3.58c12.783-7.387,17.906-23.332,11.615-36.832l4.478-2.585
		c7.541,11.539,20.343,19.336,34.977,19.954v5.397c-14.554,1.254-26.09,13.44-26.09,28.486c0.068,13.016,18.306,37.039,26.56,47.07
		c0.996,1.328,2.904,1.383,3.95,0.14c0.02-0.02,3.33-3.98,7.55-9.67c0.82-1.1,0.59-2.67-0.52-3.5c-1.07-0.79-2.71-0.54-3.5,0.52
		c-0.963,1.298-1.952,2.597-2.95,3.89v-41.692l16.627,16.62c-0.792,1.543-1.674,3.142-2.647,4.782
		c-0.742,1.264-0.242,2.77,0.88,3.42c1.16,0.68,2.76,0.26,3.43-0.89c3.59-6.19,7.73-14.13,7.8-20.69
		c0-15.045-11.535-27.231-26.09-28.486v-5.472c14.333-1.011,26.787-8.912,34.068-20.408l5.388,3.111
		c-6.31,13.537-1.138,29.467,11.613,36.836c5.563,3.123,15.508,3.789,21.82,3.58c1.38-0.01,2.49-1.14,2.48-2.52
		c-0.01-1.36-1.13-2.48-2.5-2.48h-0.02c-1,0.022-3.183,0.022-5.455-0.088l-6.085-22.71l36.113,20.85
		c-1.45,0.195-3.089,0.404-4.873,0.608c-1.396,0.167-2.364,1.413-2.2,2.77c0.15,1.36,1.41,2.36,2.77,2.2h0.01
		c6.2-0.72,10.84-1.48,12.11-1.7c1.608-0.275,2.496-1.884,1.98-3.33c-0.333-1.005-14.255-38.929-27.56-46.71
		c-12.736-7.367-29.118-3.892-37.705,8.368l-5.449-3.146c2.8-5.783,4.372-12.267,4.372-19.112c0-7.169-1.735-13.937-4.789-19.924
		l5.87-3.39c8.649,12.341,25.082,15.66,37.7,8.362c14.038-8.253,26.56-45.71,27.56-46.71c0.514-1.439-0.377-3.046-1.92-3.32
		c-0.05-0.01-5.05-0.89-12.18-1.71c-1.36-0.16-2.61,0.84-2.77,2.2c-0.164,1.355,0.804,2.603,2.2,2.77h0.01
		c1.776,0.205,3.411,0.413,4.86,0.609l-36.109,20.845l6.085-22.706c1.983-0.096,4.148-0.117,5.453-0.088h0.02
		c1.37,0,2.49-1.12,2.5-2.49c0.009-1.261-0.947-2.51-2.64-2.51c-6.196-0.233-16.17,0.488-21.66,3.58
		c-12.756,7.371-17.921,23.299-11.615,36.832l-5.887,3.398c-7.344-11.075-19.56-18.64-33.568-19.629v-6.535
		c14.455-1.246,26.09-13.353,26.09-28.477c-0.068-13.001-18.304-37.081-26.56-47.08c-0.881-1.139-2.542-1.566-3.99-0.1
		c-0.82,1-3.8,4.63-7.51,9.63c-0.821,1.116-0.581,2.695,0.52,3.49c1.07,0.8,2.71,0.55,3.5-0.51c1.07-1.445,2.068-2.759,2.95-3.903
		v41.705l-16.626-16.619c0.795-1.544,1.679-3.143,2.656-4.784c0.69-1.19,0.29-2.73-0.89-3.42c-1.15-0.68-2.75-0.26-3.43,0.89
		c-3.59,6.19-7.73,14.14-7.8,20.7c0,15.131,11.642,27.231,26.09,28.477v6.46c-14.308,0.604-26.869,8.067-34.47,19.184l-4.983-2.877
		c6.29-13.526,1.155-29.452-11.617-36.833c-5.571-3.138-15.48-3.78-21.82-3.58c-1.359,0-2.502,1.109-2.48,2.51
		c0.01,1.37,1.13,2.49,2.5,2.49h0.01c1-0.021,3.165-0.023,5.466,0.088l6.084,22.707l-36.11-20.846
		c1.452-0.195,3.092-0.404,4.871-0.608c1.37-0.16,2.36-1.4,2.2-2.77c-0.16-1.36-1.41-2.36-2.77-2.2c-0.01,0-0.01,0-0.01,0
		c-7.04,0.82-12.13,1.7-12.17,1.71c-1.553,0.276-2.431,1.889-1.92,3.32C22.984,79.237,34.455,106.886,45.84,113.581z
		 M25.574,184.255c1.577-3.845,3.721-8.809,6.221-13.925l12.224,3.277L25.574,184.255z M50.141,170.073l-16.037-4.302
		c2.829-5.382,8.923-16.076,14.236-19.02c10.533-6.091,23.809-3.105,30.855,6.549L50.141,170.073z M71.93,187.61
		c-1.769,1.058-4.757,1.87-8.534,2.369l6.904-25.771l11.396-6.579C86.684,168.874,82.139,181.72,71.93,187.61z M125.5,244.823
		c-2.539-3.286-5.763-7.62-8.943-12.34l8.943-8.943V244.823z M125.5,216.47l-11.736,11.735c-3.249-5.146-9.461-15.778-9.355-21.835
		c0.019-12.145,9.278-22.181,21.09-23.46V216.47z M230.43,184.258l-18.449-10.65l12.224-3.277
		C226.422,174.86,228.488,179.531,230.43,184.258z M207.66,146.751c5.391,3.042,11.355,13.555,14.233,19.021l-16.034,4.301
		L176.805,153.3C183.836,143.665,197.099,140.644,207.66,146.751z M174.305,157.626l11.393,6.578l6.898,25.777
		c-3.774-0.497-6.758-1.308-8.526-2.37C173.878,181.73,169.307,168.891,174.305,157.626z M230.426,71.747
		c-1.572,3.846-3.715,8.809-6.219,13.925l-12.222-3.276L230.426,71.747z M205.864,85.93l16.029,4.3
		c-2.831,5.371-8.91,16.07-14.234,19.021c-10.543,6.095-23.821,3.082-30.851-6.544L205.864,85.93z M184.07,68.38
		c1.767-1.057,4.753-1.865,8.526-2.361l-6.897,25.773l-11.396,6.579C169.318,87.131,173.854,74.275,184.07,68.38z M130.5,11.177
		c2.545,3.286,5.771,7.625,8.949,12.345L130.5,32.47V11.177z M130.5,39.53l11.736-11.736c3.242,5.138,9.46,15.762,9.354,21.846
		c-0.019,12.136-9.277,22.18-21.09,23.452V39.53z M151.59,206.37c0.033,2.067-0.757,5.046-2.216,8.565L130.5,196.061v-13.15
		C142.312,184.189,151.571,194.226,151.59,206.37z M104.41,49.63c-0.038-2.067,0.752-5.048,2.213-8.567L125.5,59.941v13.152
		C113.687,71.82,104.428,61.776,104.41,49.63z M127.375,89.529c21.506,0,39.003,17.497,39.003,39.003s-17.497,39.003-39.003,39.003
		c-22.574,0-39.003-18.686-39.003-39.003C88.372,107.026,105.869,89.529,127.375,89.529z M63.395,66.019
		c3.777,0.497,6.766,1.308,8.535,2.372c10.154,5.844,14.776,18.667,9.768,29.983L70.3,91.793L63.395,66.019z M79.197,102.702
		c-7.042,9.629-20.313,12.644-30.857,6.549c-5.384-3.039-11.356-13.552-14.235-19.021l16.036-4.301
		C66.99,95.655,62.622,93.134,79.197,102.702z M44.018,82.394l-12.225,3.277c-2.211-4.522-4.331-9.312-6.225-13.929L44.018,82.394z"
		/>
	<path d="M210.88,63.211c-0.108,1.422,0.987,2.572,2.31,2.67c1.676,0,2.59-1.159,2.67-2.32c0.1-1.37-0.94-2.57-2.31-2.67
		C212.16,60.791,210.97,61.84,210.88,63.211z"/>
	<path d="M40.13,63.561c0.1,1.3,1.19,2.32,2.5,2.32c1.501,0,2.591-1.277,2.49-2.67c-0.09-1.37-1.29-2.42-2.67-2.32
		C41.08,60.99,40.04,62.191,40.13,63.561z"/>
	<path d="M215.86,192.441c-0.09-1.36-1.28-2.41-2.67-2.32c-1.37,0.1-2.41,1.3-2.32,2.67c0.1,1.3,1.19,2.32,2.5,2.32
		C214.875,195.11,215.961,193.83,215.86,192.441z"/>
	<path d="M112.98,134.311h8.75l-5.65,19.54h-0.01c-1.382,4.83,5.19,7.786,7.88,3.7l21.46-31.62c0.01-0.01,0.01-0.01,0.01-0.01
		c1.963-2.886-0.126-6.855-3.65-6.87h-8.75c4.74-16.511,4.73-16.102,4.73-17.07c-0.01-2.42-1.98-4.39-4.41-4.4h-12.2
		c-1.97,0.01-3.67,1.29-4.23,3.17l-8.16,27.92v0.01C107.933,131.404,110.013,134.298,112.98,134.311z M121.59,102.581h10.96
		l-5.26,18.28c-0.449,1.601,0.751,3.19,2.41,3.19h10.95l-18.73,27.58l5.53-19.12c0.469-1.618-0.75-3.2-2.4-3.2h-11.27
		L121.59,102.581z"/>
</g>
</svg>
